<svg width="739" height="158" viewBox="0 0 739 158" fill="none" xmlns="http://www.w3.org/2000/svg">
<path d="M28.0151 155.829H0L46.4746 102.405V101.102L0 47.8946H28.4494L64.2827 88.7228H65.5857L100.985 47.8946H129.217L82.7422 100.667V101.97L129.217 155.829H100.767L64.9342 114.566H63.414L28.0151 155.829Z" fill="#F9F9FF"/>
<path d="M317.487 158C287.083 158 272.316 137.803 272.316 112.829V47.8946H295.553V106.531C295.553 126.728 304.891 136.935 327.694 136.935C351.583 136.935 362.659 124.773 362.659 101.319V47.8946H385.896V155.829H364.396V122.384H363.093C359.619 140.627 345.285 158 317.487 158Z" fill="#F9F9FF"/>
<path d="M430.659 155.829H407.205V10.324H430.659V155.829Z" fill="#F9F9FF"/>
<path d="M523.176 155.829H498.418C475.181 155.829 460.848 145.622 460.848 119.344V67.44H442.605V47.8946H460.848V24.2229H484.085V47.8946H523.176V67.44H484.085V118.041C484.085 131.288 490.166 134.763 503.63 134.763H523.176V155.829Z" fill="#F9F9FF"/>
<path d="M588.882 158C554.134 158 534.372 144.319 534.372 119.344V118.692H557.826V120.43C557.826 134.546 566.296 139.106 588.882 139.106C609.948 139.106 616.245 134.763 616.245 125.208C616.245 116.304 611.033 113.48 595.614 111.309L566.079 107.399C545.665 104.793 533.286 96.1066 533.286 78.0814C533.286 59.1875 550.443 45.7229 583.67 45.7229C616.68 45.7229 636.66 58.9703 636.66 84.5965V85.248H613.422V83.945C613.422 71.1319 606.907 64.3996 583.018 64.3996C563.256 64.3996 556.306 68.743 556.306 78.9501C556.306 87.4197 560.65 90.4601 576.938 92.6319L601.912 96.1066C627.538 99.3642 639.266 108.051 639.266 125.859C639.266 146.056 619.286 158 588.882 158Z" fill="#F9F9FF"/>
<path d="M182.246 157.773C171.532 157.773 161.759 155.456 152.928 150.823C144.241 146.045 137.291 139.458 132.079 131.061C127.012 122.519 124.478 112.673 124.478 101.525C124.478 90.0876 127.084 82.9052 132.296 74.5079C137.509 66.1106 144.53 59.5955 153.362 54.9625C162.338 50.1847 172.473 47.7958 183.766 47.7958C196.217 47.7958 206.207 50.3295 213.736 55.3968C221.409 60.3194 226.983 64.3167 230.458 72.8587C233.933 81.4008 235.67 90.9563 235.67 101.525C235.67 107.896 234.657 114.411 232.63 121.071C230.603 127.586 227.49 133.667 223.291 139.313C219.093 144.815 213.591 149.303 206.786 152.778C199.981 156.108 191.801 157.773 182.246 157.773ZM191.367 136.056C199.909 136.056 207.293 134.608 213.518 131.712C219.744 128.817 224.522 124.763 227.852 119.551C231.182 114.338 232.847 108.33 232.847 101.525C232.847 94.1415 231.109 87.9159 227.635 82.8486C224.305 77.6365 219.527 73.7274 213.301 71.1214C207.221 68.3705 199.909 66.9951 191.367 66.9951C179.35 66.9951 170.012 70.1803 163.352 76.5506C156.692 82.7762 153.362 91.1011 153.362 101.525C153.362 108.475 154.955 114.556 158.14 119.768C161.325 124.835 165.741 128.817 171.387 131.712C177.179 134.608 183.838 136.056 191.367 136.056Z" fill="#F9F9FF"/>
<path d="M232.512 47.7958H256.443V157.88H234.563L232.512 108.308V47.7958Z" fill="#F9F9FF"/>
<path d="M730.74 20.1865L738.911 45.66L707.51 53.6706L727.216 77.7022L705.587 93.4028L687.964 65.8466L670.501 93.2426L649.033 77.7022L669.38 53.1899L638.619 45.1794L646.79 19.8661L676.429 31.4013L674.346 0H701.101L698.858 32.8432L730.74 20.1865Z" fill="#C9F962"/>
</svg>
